<?xml version="1.0" encoding="utf-8"?>
<!DOCTYPE svg PUBLIC "-//W3C//DTD SVG 1.1//EN" "http://www.w3.org/Graphics/SVG/1.1/DTD/svg11.dtd">
<svg version="1.1" id="logo" xmlns="http://www.w3.org/2000/svg" xmlns:xlink="http://www.w3.org/1999/xlink" x="0px" y="0px"
	 width="200px" height="70px" viewBox="0 0 200 70" enable-background="new 0 0 200 70" xml:space="preserve">
<g id="typo">
	<g>
		<path fill="#444444" d="M118.633,18.989c-3.2,0-6.686,0.18-10.646,0.54v3.96c3.679-0.48,6.905-0.501,9.866-0.501
			c2.72,0,4.569,0.062,5.55,0.621c0.979,0.561,1.595,1.641,1.595,3.24V31h-8.824c-4.121,0-6.9,1.079-8.34,2.298
			c-1.441,1.221-1.848,3.45-1.848,6.69c0,3.72,0.457,6.19,1.997,7.409c1.539,1.221,4.31,1.612,8.31,1.612
			c5.4,0,8.258-0.901,8.697-3.142v3.135h5.002V28.109c0-3.72-0.439-6.169-1.879-7.35C126.674,19.58,123.514,18.989,118.633,18.989z
			 M124.998,42.062c0,0.681-0.355,1.229-0.814,1.65c-0.461,0.42-1.131,0.72-2.01,0.899c-0.881,0.18-1.671,0.291-2.371,0.33
			c-0.699,0.041-1.57,0.061-2.609,0.061h-1.08c-2.121,0-3.51-0.41-4.17-1.23c-0.66-0.819-0.99-1.562-0.99-3.603
			c0-2.28,0.31-3.739,0.93-4.38c0.62-0.64,2.17-0.804,4.65-0.804h8.465V42.062z M88.628,18.979c-5.8,0-9.074,1.253-9.634,4.013
			v-4.018H74V49h4.994V28c0-1.839,0.634-3.321,1.714-4.002c1.08-0.68,3.2-1.02,6.36-1.02c1.359,0,2.49,0.13,3.39,0.39
			c0.899,0.26,1.825,0.695,2.237,1.044c0.414,0.35,1.312,1.393,1.312,3.588v21h4.986V27.7c0-2.799-1.006-4.89-2.446-6.27
			C95.107,20.05,92.468,18.979,88.628,18.979z M194.28,24.88c-0.46-1.32-1.243-2.34-1.902-3.06c-0.66-0.72-1.63-1.651-2.91-2.031
			c-1.28-0.38-2.47-0.609-3.569-0.69c-1.102-0.08-2.611-0.12-4.531-0.12s-3.43,0.04-4.529,0.12c-1.101,0.081-2.291,0.31-3.57,0.69
			c-1.28,0.38-2.25,1.311-2.91,2.031c-0.66,0.72-1.221,1.74-1.68,3.06c-0.461,1.32-0.689,2.94-0.689,4.86v10.08
			c0,2.24,0.289,3.469,0.869,4.828s1.539,2.35,2.881,2.97c1.34,0.62,2.679,1.01,4.02,1.17c1.34,0.159,3.21,0.239,5.609,0.239
			c1.881,0,3.391-0.039,4.531-0.119c1.139-0.081,2.34-0.301,3.6-0.66c1.26-0.36,2.229-0.879,2.91-1.561
			c0.68-0.68,1.461-1.64,1.902-2.88c0.439-1.239,0.66-2.188,0.66-3.987V29.74C194.971,27.82,194.74,26.2,194.28,24.88z
			 M189.99,39.615c0,1.28-0.271,1.916-0.771,2.979s-1.211,1.392-1.971,1.73c-0.761,0.341-1.541,0.551-2.34,0.631
			c-0.801,0.08-1.98,0.057-3.541,0.057c-1.559,0-2.74-0.04-3.539-0.121c-0.801-0.079-1.581-0.226-2.34-0.566
			c-0.761-0.339-1.332-0.699-1.832-1.699s-0.657-1.729-0.657-3.01V28.84c0-2.679,1.049-4.34,2.129-4.98
			c1.08-0.64,3.159-0.896,6.239-0.896s5.16,0.257,6.24,0.896c1.08,0.64,2.383,2.301,2.383,4.98V39.615z M151.628,18.979
			c-5.8,0-9.074,1.253-9.634,4.013v-4.018H137V49h4.994V28c0-1.839,0.634-3.321,1.714-4.002c1.08-0.68,3.2-1.02,6.36-1.02
			c1.359,0,2.49,0.13,3.39,0.39c0.899,0.26,1.825,0.695,2.237,1.044c0.414,0.35,1.312,1.393,1.312,3.588v21h4.986V27.7
			c0-2.799-1.006-4.89-2.446-6.27C158.107,20.05,155.468,18.979,151.628,18.979z"/>
	</g>
</g>
<circle fill-rule="evenodd" clip-rule="evenodd" fill="#58BBE5" cx="43.5" cy="20" r="11"/>
<path fill-rule="evenodd" clip-rule="evenodd" fill="#444444" d="M43.429,40c-6.638,0-9.306,6.125-13.804,6.125
	c-6.006,0-10.375-4.312-10.375-10.375s6.179-9,6.179-15.75c0-5.458-4.925-11-11-11s-11,5.25-11,11c0,8.084,6.071,7.792,6.071,15.75
	c0,7.812-6.071,8.416-6.071,15.25c0,5.875,5.138,11,11,11c6.904,0,7.821-5.625,15.196-5.625S35.75,62,43.429,62
	c5.946,0,11-4.926,11-11C54.429,44.924,48.983,40,43.429,40z"/>
</svg>
